<?xml version="1.0"?>
<svg xmlns="http://www.w3.org/2000/svg" viewBox="0 0 64 64" width="512" height="512"><g id="flat"><rect x="11" y="43" width="42" height="10" style="fill:#e4544f"/><rect x="11" y="39" width="42" height="4" style="fill:#995f5b"/><path d="M53,39H11V11c0-4-4-8-4-8H57s-4,4-4,9Z" style="fill:#ebb562"/><rect x="18" y="43" width="4" height="10" style="fill:#418abd"/><rect x="12.5" y="47.5" width="4" height="7" transform="translate(65.5 36.5) rotate(90)" style="fill:#7fcac9"/><rect x="23" y="42" width="4" height="6" transform="translate(70 20) rotate(90)" style="fill:#7fcac9"/><rect x="38" y="43" width="4" height="10" style="fill:#418abd"/><rect x="48" y="43" width="5" height="10" style="fill:#418abd"/><rect x="43" y="42" width="4" height="6" transform="translate(90) rotate(90)" style="fill:#7fcac9"/><rect x="28" y="43" width="4" height="10" style="fill:#418abd"/><rect x="33" y="48" width="4" height="6" transform="translate(86 16) rotate(90)" style="fill:#7fcac9"/><polygon points="39 39 25 39 32 27 39 39" style="fill:#e4544f"/><polygon points="25 39 11 39 18 27 25 39" style="fill:#e4544f"/><polygon points="53 39 39 39 46 27 53 39" style="fill:#e4544f"/><rect x="11" y="9" width="10" height="2" style="fill:#d9833b"/><rect x="37" y="9" width="16" height="2" style="fill:#d9833b"/><rect x="27" y="9" width="2" height="2" style="fill:#d9833b"/><rect x="23" y="9" width="2" height="2" style="fill:#d9833b"/><rect x="48" y="13" width="2" height="8" style="fill:#d9833b"/><rect x="48" y="23" width="2" height="2" style="fill:#d9833b"/><rect x="13" y="53" width="38" height="8" style="fill:#ebb562"/></g></svg>
