<?xml version="1.0"?>
<svg xmlns="http://www.w3.org/2000/svg" viewBox="0 0 64 64" width="512" height="512"><g id="flat"><path d="M9,55a3.7,3.7,0,0,0-3-2,3.7,3.7,0,0,0-3,2V11A3.7,3.7,0,0,1,6,9a3.7,3.7,0,0,1,3,2Z" style="fill:#995f5b"/><path d="M61,55a3.7,3.7,0,0,0-3-2,3.7,3.7,0,0,0-3,2V11a3.7,3.7,0,0,1,3-2,3.7,3.7,0,0,1,3,2Z" style="fill:#995f5b"/><rect x="9" y="12" width="46" height="40" style="fill:#ebb562"/><polygon points="22 31 19 32 16 30 15 27 16 25 17 22 19 20 20 17 23 17 26 18 29 20 34 20 35 22 36 24 38 27 39 29 42 29 40 32 37 35 37 38 36 42 35 43 34 45 33 47 31 48 28 48 27 46 27 44 26 42 26 39 27 37 27 35 25 33 25 31 22 31" style="fill:#f1d77e"/><polygon points="42 39 41 43 39 45 41 47 45 46 45 43 46 40 48 36 44 34 42 37 42 39" style="fill:#f1d77e"/><polygon points="52 21 50 21 50 17 48 17 48 15 52 15 52 21" style="fill:#995f5b"/><polygon points="18 49 12 49 12 41 14 41 14 47 18 47 18 49" style="fill:#995f5b"/><rect x="20" y="47" width="2" height="2" style="fill:#995f5b"/><rect x="30" y="16" width="2" height="15" style="fill:#418abd"/><rect x="28" y="30" width="6" height="2" style="fill:#418abd"/><polygon points="24 27.414 22 25.414 20.707 26.707 19.293 25.293 22 22.586 24 24.586 26 22.586 28.707 25.293 27.293 26.707 26 25.414 24 27.414" style="fill:#995f5b"/><rect x="29" y="41" width="2" height="2" style="fill:#995f5b"/><rect x="31" y="39" width="2" height="2" style="fill:#995f5b"/><rect x="30" y="15" width="14" height="10" rx="1" ry="1" style="fill:#e4544f"/></g></svg>
