<?xml version="1.0"?>
<svg xmlns="http://www.w3.org/2000/svg" viewBox="0 0 64 64" width="512" height="512"><g id="flat"><path d="M47,23c0,16.016-6.716,38-15,38S17,39.016,17,23,25,3,32,3,47,6.984,47,23Z" style="fill:#ebb562"/><rect x="28.464" y="6.464" width="7.071" height="7.071" transform="translate(16.444 -19.698) rotate(45)" style="fill:#e97131"/><path d="M45.605,36.858,34.4,34,36,38l8.805,2.59C45.1,39.362,45.365,38.115,45.605,36.858Z" style="fill:#e97131"/><path d="M18.4,36.858,29.606,34l-1.6,4L19.2,40.59C18.906,39.362,18.641,38.115,18.4,36.858Z" style="fill:#e97131"/><path d="M46.853,19.483A10.3,10.3,0,0,0,39.933,17,10.948,10.948,0,0,0,32,20a10.948,10.948,0,0,0-7.933-3,10.3,10.3,0,0,0-6.92,2.483C17.054,20.587,17,21.753,17,23c0,1.806.09,3.69.253,5.608A10.343,10.343,0,0,0,24.067,31,10.948,10.948,0,0,0,32,28a10.948,10.948,0,0,0,7.933,3,10.343,10.343,0,0,0,6.814-2.392C46.91,26.69,47,24.806,47,23,47,21.753,46.946,20.588,46.853,19.483Z" style="fill:#e97131"/><path d="M31,24s-3.239,3-6,3-6-3-6-3,3.239-3,6-3S31,24,31,24Z" style="fill:#f3e56d"/><path d="M45,24s-3.239,3-6,3-6-3-6-3,3.239-3,6-3S45,24,45,24Z" style="fill:#f3e56d"/><polygon points="36 42 32 44 28 42 28 38 32 28 36 38 36 42" style="fill:#dd3e46"/><path d="M43.344,45.844S38.265,56.156,32,56.156,20.656,45.844,20.656,45.844A33.481,33.481,0,0,0,32,47.906,33.481,33.481,0,0,0,43.344,45.844Z" style="fill:#995f5b"/><path d="M44.805,40.59,36,38v4l7.775,2.43Q44.332,42.555,44.805,40.59Z" style="fill:#67c086"/><path d="M19.2,40.59,28.006,38v4l-7.775,2.43Q19.675,42.555,19.2,40.59Z" style="fill:#67c086"/><rect x="23" y="12" width="2" height="2" style="fill:#dd3e46"/><rect x="39" y="12" width="2" height="2" style="fill:#dd3e46"/><polygon points="28.006 38 32 40 36 38 36 42 32 44 28.006 42 28.006 38" style="fill:#f1997e"/></g></svg>
