<?xml version="1.0"?>
<svg xmlns="http://www.w3.org/2000/svg" viewBox="0 0 64 64" width="512" height="512"><g id="flat"><polygon points="14 11 13 5 3 3 5 13 11 14 14 11" style="fill:#98a1a1"/><rect x="9.5" y="6.964" width="2" height="7.071" transform="translate(-4.349 10.5) rotate(-45)" style="fill:#394d5c"/><polygon points="50 11 51 5 61 3 59 13 53 14 50 11" style="fill:#98a1a1"/><rect x="49.964" y="9.5" width="7.071" height="2" transform="translate(8.245 40.906) rotate(-45)" style="fill:#394d5c"/><rect x="33.879" y="2.766" width="4.243" height="66.468" transform="translate(-14.912 36) rotate(-45)" style="fill:#d3843d"/><rect x="-5.234" y="33.879" width="66.468" height="4.243" transform="translate(-17.255 30.343) rotate(-45)" style="fill:#d3843d"/><path d="M49,32c0,20.174-17,29-17,29S15,52.174,15,32,32,3,32,3,49,11.826,49,32Z" style="fill:#995f5b"/><path d="M35,10.565c0,4.178-1.343,7.565-3,7.565s-3-3.387-3-7.565A12.869,12.869,0,0,1,32,3,12.869,12.869,0,0,1,35,10.565Z" style="fill:#ebb562"/><path d="M35,53.435C35,49.329,33.657,46,32,46s-3,3.329-3,7.435a12.546,12.546,0,0,0,3,7.435A12.546,12.546,0,0,0,35,53.435Z" style="fill:#ebb562"/><path d="M36,32c0,5.155-4,12-4,12s-4-6.845-4-12,4-12,4-12S36,26.845,36,32Z" style="fill:#ebb562"/><path d="M19.212,48.132C21.483,44.78,23,38.818,23,32s-1.517-12.78-3.788-16.132A32.1,32.1,0,0,0,15,32,32.1,32.1,0,0,0,19.212,48.132Z" style="fill:#ebb562"/><path d="M44.788,48.132C42.517,44.78,41,38.818,41,32s1.517-12.78,3.788-16.132A32.1,32.1,0,0,1,49,32,32.1,32.1,0,0,1,44.788,48.132Z" style="fill:#ebb562"/><rect x="51.379" y="50.672" width="4.243" height="5.657" transform="translate(-22.16 53.5) rotate(-45)" style="fill:#995f5b"/><rect x="7.672" y="51.379" width="5.657" height="4.243" transform="translate(-34.755 23.094) rotate(-45)" style="fill:#995f5b"/><path d="M26.97,24.243l-1.94-.486.892-3.57-1.754-2.632a1,1,0,0,1-.138-.8l1-4,1.94.486-.892,3.57,1.754,2.632a1,1,0,0,1,.138.8Z" style="fill:#ebb562"/><path d="M37.03,24.243l-1-4a1,1,0,0,1,.138-.8l1.754-2.632-.892-3.57,1.94-.486,1,4a1,1,0,0,1-.138.8l-1.754,2.632.892,3.57Z" style="fill:#ebb562"/><path d="M25.03,51.243l-1-4a1,1,0,0,1,.138-.8l1.754-2.632-.892-3.57,1.94-.486,1,4a1,1,0,0,1-.138.8l-1.754,2.632.892,3.57Z" style="fill:#ebb562"/><path d="M38.97,51.243l-1.94-.486.892-3.57-1.754-2.632a1,1,0,0,1-.138-.8l1-4,1.94.486-.892,3.57,1.754,2.632a1,1,0,0,1,.138.8Z" style="fill:#ebb562"/><circle cx="32" cy="32" r="4" style="fill:#f3e56d"/><circle cx="19" cy="32" r="4" style="fill:#f3e56d"/><circle cx="45" cy="32" r="4" style="fill:#f3e56d"/></g></svg>
