<?xml version="1.0"?>
<svg xmlns="http://www.w3.org/2000/svg" viewBox="0 0 64 64" width="512" height="512"><g id="flat"><circle cx="32" cy="32" r="17" style="fill:#f3bb59"/><circle cx="32" cy="32" r="9" style="fill:#f1d77e"/><circle cx="32" cy="32" r="5" style="fill:#d9833b"/><path d="M20,32H18A14.015,14.015,0,0,1,32,18v2A12.013,12.013,0,0,0,20,32Z" style="fill:#e4544f"/><path d="M32,46V44A12.013,12.013,0,0,0,44,32h2A14.015,14.015,0,0,1,32,46Z" style="fill:#e4544f"/><polygon points="37 11 27 11 32 3 37 11" style="fill:#e4544f"/><polygon points="37 53 27 53 32 61 37 53" style="fill:#e4544f"/><polygon points="53 37 53 27 61 32 53 37" style="fill:#e4544f"/><polygon points="11 37 11 27 3 32 11 37" style="fill:#e4544f"/><polygon points="13 20 20 13 10 10 13 20" style="fill:#e4544f"/><polygon points="51 20 44 13 54 10 51 20" style="fill:#e4544f"/><polygon points="13 44 20 51 10 54 13 44" style="fill:#e4544f"/><polygon points="51 44 44 51 54 54 51 44" style="fill:#e4544f"/><rect x="18" y="34" width="2" height="2" style="fill:#e4544f"/><rect x="44" y="28" width="2" height="2" style="fill:#e4544f"/></g></svg>
