<svg width="500" height="540" viewBox="0 0 500 540" fill="none" xmlns="http://www.w3.org/2000/svg">
<path d="M146.614 232.759L120.757 251.379H86.2812L69.0433 242.069L43.1865 204.828L25.9487 195.517V148.966L34.5676 111.724L60.4244 74.4828L77.6623 37.2414L129.376 27.931L172.471 0H198.327L224.184 27.931L267.279 37.2414L310.373 46.5517V83.7931L353.468 130.345L362.087 195.517H387.944H413.801L431.039 204.828L413.801 260.69L370.706 270L353.468 297.931L344.849 335.172L353.468 363.103L362.087 381.724L336.23 418.966L318.992 428.276V456.207L293.136 474.828L284.517 521.379L267.279 530.69L241.422 540H215.565L189.708 493.448V456.207V428.276V391.034L206.946 353.793L181.089 307.241L198.327 242.069L181.089 232.759H146.614Z" fill="#EBB562"/>
<path d="M379.325 484.138L362.087 456.207L370.706 428.276L387.944 409.655L396.563 372.414L387.944 344.483L422.42 316.552L448.277 353.793L431.039 400.345V437.586L405.182 474.828L379.325 484.138Z" fill="#EBB562"/>
<path d="M0.091853 493.448V484.138C-0.213728 480.387 0.245315 476.609 1.43668 473.071C2.62805 469.532 4.5228 466.318 6.98762 463.656C9.45244 460.993 12.4274 458.947 15.7033 457.66C18.9792 456.373 22.4763 455.877 25.9487 456.207H34.5676C39.6786 438.517 51.8055 428.276 77.6623 428.276C96.8566 428.276 116.603 436.953 120.757 456.207H129.376C132.798 456.103 136.203 456.754 139.384 458.121C142.564 459.488 145.453 461.541 147.874 464.156C150.294 466.771 152.195 469.891 153.461 473.327C154.726 476.763 155.329 480.442 155.233 484.138V493.448H0.091853Z" fill="#69B1D5"/>
<path d="M344.849 65.1724V55.8621C344.544 52.1112 345.003 48.3335 346.194 44.7948C347.385 41.2562 349.28 38.0425 351.745 35.38C354.21 32.7174 357.185 30.6707 360.461 29.3837C363.737 28.0968 367.234 27.6009 370.706 27.931H379.325C384.436 10.2414 396.563 0 422.42 0C441.614 0 461.36 8.67724 465.514 27.931H474.133C477.555 27.827 480.96 28.4783 484.141 29.8451C487.322 31.2119 490.211 33.2655 492.631 35.8802C495.052 38.4949 496.953 41.6156 498.218 45.0514C499.483 48.4872 500.086 52.1658 499.99 55.8621V65.1724H344.849Z" fill="#69B1D5"/>
<path d="M312.063 334.986L308.684 316.738L288.792 321.03L308.486 294.44L295.023 282.802L275.898 308.629V260.69H258.66V308.629L239.534 282.802L226.072 294.44L245.766 321.03L225.873 316.738L222.495 334.986L258.66 342.807V446.897H275.898V342.807L312.063 334.986Z" fill="#DD3E46"/>
<path d="M153.543 121.221L133.651 125.513L153.345 98.9224L139.882 87.2845L120.757 113.111V65.1724H103.519V113.111L84.3937 87.2845L70.9309 98.9224L90.6252 125.513L70.7327 121.221L67.3541 139.469L103.519 147.29V223.448H120.757V147.29L156.922 139.469L153.543 121.221Z" fill="#DD3E46"/>
<path d="M232.803 232.759H250.041V184.531L286.206 176.71L282.827 158.462L262.935 162.754L282.629 136.164L269.166 124.526L250.041 150.353V102.414H232.803V150.353L213.678 124.526L200.215 136.164L219.909 162.754L200.017 158.462L196.638 176.71L232.803 184.531V232.759Z" fill="#DD3E46"/>
</svg>
