<?xml version="1.0"?>
<svg xmlns="http://www.w3.org/2000/svg" viewBox="0 0 64 64" width="512" height="512"><g id="flat"><path d="M51,19V33H47V19H43V33H31v4H26V29h6a6,6,0,0,0,6-6V19H34v4a2,2,0,0,1-2,2H26V19H22V37H18V19H14v5H8v4h6v9a4,4,0,0,0,4,4H31V61h6V37H51a4,4,0,0,0,4-4V19Z" style="fill:#ebb562"/><path d="M51,9c-.529,0-1.045.027-1.552.066C47.5,5.584,40.438,3,32,3S16.5,5.584,14.552,9.066C14.045,9.027,13.529,9,13,9,7.477,9,3,12,3,17c0,2,4.477,2,10,2H51c5.523,0,10,0,10-2C61,12,56.523,9,51,9Z" style="fill:#67c086"/><path d="M21.2,13.6C18.544,10.059,13.054,10,13,10l0-2c.266,0,6.537.05,9.8,4.4Z" style="fill:#d1f5c9"/><path d="M44.9,13.447l-1.79-.894C45.356,8.052,51.729,8,52,8l0,2C51.947,10,46.59,10.057,44.9,13.447Z" style="fill:#d1f5c9"/><path d="M12,16a.988.988,0,0,1-.7-.29,1.726,1.726,0,0,0-2.592.006l-1.408-1.42a3.743,3.743,0,0,1,4.726-.569,3.629,3.629,0,0,1,4.688.569l-1.414,1.414a1.726,1.726,0,0,0-2.592.006A1.01,1.01,0,0,1,12,16Z" style="fill:#d1f5c9"/><path d="M26,10a.988.988,0,0,1-.7-.29,1.726,1.726,0,0,0-2.592.006l-1.408-1.42a3.743,3.743,0,0,1,4.726-.569,3.627,3.627,0,0,1,4.688.569L29.293,9.707a1.726,1.726,0,0,0-2.592.006A1.01,1.01,0,0,1,26,10Z" style="fill:#d1f5c9"/><path d="M29,16a.988.988,0,0,1-.7-.29,1.726,1.726,0,0,0-2.592.006l-1.408-1.42a3.743,3.743,0,0,1,4.726-.569,3.629,3.629,0,0,1,4.688.569l-1.414,1.414a1.726,1.726,0,0,0-2.592.006A1.01,1.01,0,0,1,29,16Z" style="fill:#d1f5c9"/><path d="M37,12a.988.988,0,0,1-.7-.29,1.725,1.725,0,0,0-2.592.006l-1.408-1.42a3.743,3.743,0,0,1,4.726-.569,3.629,3.629,0,0,1,4.688.569l-1.414,1.414a1.726,1.726,0,0,0-2.592.006A1.01,1.01,0,0,1,37,12Z" style="fill:#d1f5c9"/><path d="M52,15.886a.988.988,0,0,1-.7-.29A1.725,1.725,0,0,0,48.7,15.6l-1.408-1.42a3.743,3.743,0,0,1,4.726-.57,3.628,3.628,0,0,1,4.688.57L55.293,15.6A1.725,1.725,0,0,0,52.7,15.6,1.01,1.01,0,0,1,52,15.886Z" style="fill:#d1f5c9"/><path d="M3,23H4a4,4,0,0,1,4,4v1a0,0,0,0,1,0,0H7a4,4,0,0,1-4-4V23A0,0,0,0,1,3,23Z" style="fill:#67c086"/><path d="M8,32h2a4,4,0,0,1,4,4v0a0,0,0,0,1,0,0H12a4,4,0,0,1-4-4v0A0,0,0,0,1,8,32Z" style="fill:#67c086"/><path d="M59,23h2a0,0,0,0,1,0,0v0a4,4,0,0,1-4,4H55a0,0,0,0,1,0,0v0A4,4,0,0,1,59,23Z" style="fill:#67c086"/><path d="M41,42h2a0,0,0,0,1,0,0v0a4,4,0,0,1-4,4H37a0,0,0,0,1,0,0v0A4,4,0,0,1,41,42Z" style="fill:#67c086"/><path d="M25,45h2a4,4,0,0,1,4,4v0a0,0,0,0,1,0,0H29a4,4,0,0,1-4-4v0A0,0,0,0,1,25,45Z" transform="translate(56 94) rotate(-180)" style="fill:#67c086"/><rect x="31" y="56" width="3" height="2" style="fill:#ad6327"/><rect x="34" y="52" width="3" height="2" style="fill:#ad6327"/><rect x="34" y="39" width="3" height="2" style="fill:#ad6327"/><rect x="31" y="43" width="3" height="2" style="fill:#ad6327"/><rect x="43" y="60" width="2" height="2" style="fill:#67c086"/><rect x="47" y="60" width="2" height="2" style="fill:#67c086"/><rect x="23" y="60" width="2" height="2" style="fill:#67c086"/><rect x="19" y="60" width="2" height="2" style="fill:#67c086"/></g></svg>
