<svg width="375" height="390" viewBox="0 0 375 390" fill="none" xmlns="http://www.w3.org/2000/svg">
<path d="M51.7241 13.4483L0 161.379L77.5862 201.724V141.207L51.7241 13.4483Z" fill="#EBB562"/>
<path d="M323.276 13.4483L375 161.379L297.414 201.724V141.207L323.276 13.4483Z" fill="#EBB562"/>
<path d="M297.414 390H77.5862V141.207L51.7241 13.4483L122.845 0H252.155L323.276 13.4483L297.414 141.207V390Z" fill="#D9833B"/>
<path d="M13.7845 121.956L0 161.379L77.5862 201.724V157.345L13.7845 121.956Z" fill="#DD3E46"/>
<path d="M45.9402 94.8502L33.0096 121.746L44.5755 127.76L57.5061 100.864L45.9402 94.8502Z" fill="#D9833B"/>
<path d="M361.216 121.956L375 161.379L297.414 201.724V157.345L361.216 121.956Z" fill="#DD3E46"/>
<path d="M329.062 94.8514L317.496 100.866L330.427 127.761L341.992 121.747L329.062 94.8514Z" fill="#D9833B"/>
<path d="M226.293 127.759L187.5 161.379L148.707 127.759V0H226.293V127.759Z" fill="#EBB562"/>
<path d="M122.845 20.1724H96.9827V33.6207H122.845V20.1724Z" fill="#EBB562"/>
<path d="M122.845 47.069H96.9827V60.5172H122.845V47.069Z" fill="#EBB562"/>
<path d="M122.845 73.9655H96.9827V87.4138H122.845V73.9655Z" fill="#EBB562"/>
<path d="M122.845 100.862H96.9827V114.31H122.845V100.862Z" fill="#EBB562"/>
<path d="M122.845 127.759H96.9827V141.207H122.845V127.759Z" fill="#EBB562"/>
<path d="M131.209 143.176L111.81 163.35L120.954 172.859L140.352 152.685L131.209 143.176Z" fill="#EBB562"/>
<path d="M153.833 159.985L131.203 183.521L140.346 193.03L162.977 169.495L153.833 159.985Z" fill="#EBB562"/>
<path d="M159.744 213.202L150.601 203.694L175.125 178.19L187.506 184.342L159.744 213.202Z" fill="#EBB562"/>
<path d="M278.017 20.1724H252.155V33.6207H278.017V20.1724Z" fill="#EBB562"/>
<path d="M278.017 47.069H252.155V60.5172H278.017V47.069Z" fill="#EBB562"/>
<path d="M278.017 73.9655H252.155V87.4138H278.017V73.9655Z" fill="#EBB562"/>
<path d="M278.017 100.862H252.155V114.31H278.017V100.862Z" fill="#EBB562"/>
<path d="M278.017 127.759H252.155V141.207H278.017V127.759Z" fill="#EBB562"/>
<path d="M243.799 143.181L234.655 152.69L254.054 172.864L263.197 163.355L243.799 143.181Z" fill="#EBB562"/>
<path d="M234.653 193.03L210.608 168.023L221.166 159.987L243.795 183.522L234.653 193.03Z" fill="#EBB562"/>
<path d="M215.256 213.202L187.506 184.342L199.875 178.19L224.399 203.694L215.256 213.202Z" fill="#EBB562"/>
<path d="M193.966 181.552H181.034V221.897H193.966V181.552Z" fill="#EBB562"/>
<path d="M297.414 363.103H77.5862V390H297.414V363.103Z" fill="#EBB562"/>
<path d="M168.103 268.966H77.5862V309.31H168.103V268.966Z" fill="#995F5B"/>
<path d="M168.103 309.31H77.5862V336.207H168.103V309.31Z" fill="#EBB562"/>
<path d="M297.414 268.966H206.897V309.31H297.414V268.966Z" fill="#995F5B"/>
<path d="M297.414 309.31H206.897V336.207H297.414V309.31Z" fill="#EBB562"/>
<path d="M77.5862 268.966L122.845 309.31L168.103 268.966H77.5862Z" fill="#DD3E46"/>
<path d="M206.897 268.966L252.155 309.31L297.414 268.966H206.897Z" fill="#DD3E46"/>
<path d="M226.293 336.207H148.707V363.103H226.293V336.207Z" fill="#DD3E46"/>
<path d="M148.707 336.207H109.914V363.103H148.707V336.207Z" fill="#995F5B"/>
<path d="M265.086 336.207H226.293V363.103H265.086V336.207Z" fill="#995F5B"/>
<path d="M161.638 363.103H122.845V390H161.638V363.103Z" fill="#DD3E46"/>
<path d="M252.155 363.103H213.362V390H252.155V363.103Z" fill="#DD3E46"/>
<path d="M122.845 0V141.207L187.5 195L252.155 141.207V0H226.293V127.759L187.5 161.379L148.707 127.759V0H122.845Z" fill="#DD3E46"/>
</svg>
