<?xml version="1.0"?>
<svg xmlns="http://www.w3.org/2000/svg" viewBox="0 0 64 64" width="512" height="512"><g id="flat"><path d="M33.056,13s-12-2-12,20l-6,2S13.056,13,33.056,13Z" style="fill:#dd3e46"/><rect x="29" y="3" width="6" height="4" style="fill:#d3843d"/><rect x="29" y="7" width="6" height="9" style="fill:#995f5b"/><path d="M41,35c-1.225-1.347-2-3.478-1-5a12.045,12.045,0,0,0,2-6c0-5.523-4.477-11-10-11S22,18.477,22,24a12.045,12.045,0,0,0,2,6c1,1.522.225,3.653-1,5-3.16,3.474-5,9.65-5,14,0,7.732,6.268,12,14,12s14-4.268,14-12C46,44.65,44.16,38.474,41,35Z" style="fill:#ebb562"/><rect x="36" y="35.188" width="2" height="7.624" style="fill:#dd3e46"/><polygon points="38 49.667 38 47 36 47 36 49.795 33.081 56.606 34.919 57.394 37.238 51.984 39.2 54.6 40.8 53.4 38 49.667" style="fill:#dd3e46"/><path d="M28.684,57.949c-9.766-3.256-7.676-12.1-7.654-12.192l1.94.486L22,46l.971.239c-.071.291-1.636,7.152,6.345,9.812Z" style="fill:#995f5b"/><rect x="26" y="25" width="2" height="2" style="fill:#ffd782"/><rect x="28" y="27" width="2" height="2" style="fill:#ffd782"/><path d="M23.948,43.316l-1.9-.632A32.688,32.688,0,0,1,26.2,35.4l1.6,1.2A31.378,31.378,0,0,0,23.948,43.316Z" style="fill:#995f5b"/><circle cx="37" cy="44" r="4" style="fill:#995f5b"/><path d="M22.73,35.322a26.329,26.329,0,0,0,18.785.29c-.173-.2-.334-.413-.515-.612a5.138,5.138,0,0,1-1.438-3.739,26.438,26.438,0,0,1-15.2-.346A4.9,4.9,0,0,1,23,35C22.905,35.1,22.822,35.216,22.73,35.322Z" style="fill:#dd3e46"/></g></svg>
