<svg width="100" height="150" viewBox="0 0 100 150" fill="none" xmlns="http://www.w3.org/2000/svg">
<path d="M96.1538 18.75H84.6154V4.6875C84.6154 2.1 82.8923 0 80.7692 0H11.5385C5.17692 0 0 6.30937 0 14.0625V131.25C0 141.591 6.9 150 15.3846 150H96.1538C98.2769 150 100 147.9 100 145.312V23.4375C100 20.85 98.2769 18.75 96.1538 18.75ZM76.9231 117.188C76.9231 119.775 75.2 121.875 73.0769 121.875H26.9231C24.8 121.875 23.0769 119.775 23.0769 117.188V107.812C23.0769 94.8844 31.7077 84.375 42.3077 84.375H57.6923C68.3 84.375 76.9231 94.8844 76.9231 107.812V117.188ZM34.6154 56.25C34.6154 45.9094 41.5154 37.5 50 37.5C58.4846 37.5 65.3846 45.9094 65.3846 56.25C65.3846 66.5906 58.4846 75 50 75C41.5154 75 34.6154 66.5906 34.6154 56.25ZM76.9231 18.75H11.5385C9.41538 18.75 7.69231 16.65 7.69231 14.0625C7.69231 11.475 9.41538 9.375 11.5385 9.375H76.9231V18.75Z" fill="#003366"/>
</svg>
