<?xml version="1.0" encoding="UTF-8" standalone="no"?>
<svg
   width="125"
   height="125"
   viewBox="0 0 125 125"
   fill="none"
   version="1.1"
   id="svg1"
   sodipodi:docname="dic.svg"
   inkscape:version="1.3 (0e150ed6c4, 2023-07-21)"
   xmlns:inkscape="http://www.inkscape.org/namespaces/inkscape"
   xmlns:sodipodi="http://sodipodi.sourceforge.net/DTD/sodipodi-0.dtd"
   xmlns="http://www.w3.org/2000/svg"
   xmlns:svg="http://www.w3.org/2000/svg">
  <defs
     id="defs1" />
  <sodipodi:namedview
     id="namedview1"
     pagecolor="#ffffff"
     bordercolor="#000000"
     borderopacity="0.25"
     inkscape:showpageshadow="2"
     inkscape:pageopacity="0.0"
     inkscape:pagecheckerboard="0"
     inkscape:deskcolor="#d1d1d1"
     inkscape:zoom="2.3145161"
     inkscape:cx="31.756098"
     inkscape:cy="96.56446"
     inkscape:window-width="1920"
     inkscape:window-height="1043"
     inkscape:window-x="0"
     inkscape:window-y="0"
     inkscape:window-maximized="1"
     inkscape:current-layer="svg1" />
  <path
     d="M 33.916167,51.658401 H 26.25525 V 39.536895 h 7.610167 V 33.089852 H 40.663 v 6.361022 h 7.659667 V 51.61754 H 40.663 v 0.04113 H 33.916167 Z M 7.88255,108.54973 c 0.00388,0.29906 0.00971,0.52285 0.013583,0.66868 0.00194,0.0907 -0.017142,0.17406 -0.022958,0.2621 0.239025,4.95968 5.095992,8.93145 11.044575,8.93145 h 98.25142 v -9.10618 c 0,-1.81788 1.75333,-3.29436 3.91583,-3.29436 2.16,0 3.915,1.47648 3.915,3.29436 v 12.39987 C 125,123.52554 123.245,125 121.085,125 H 18.32675 c -0.203417,0 -0.399417,-0.0242 -0.597333,-0.0497 C 7.8625,124.43011 0.01816232,117.53159 0.01816232,109.09946 c 0,-0.19355 0.02749375,-0.38037 0.03525658,-0.57123 -0.12129417,-9.78159 -8e-8,-84.19026 0.01358483,-92.286227 C 0.05180157,16.126882 0.02592582,16.016935 0.02592582,15.899395 0.02592582,7.1315188 8.5029167,0 18.924167,0 h 6.256583 94.94425 0.95583 c 2.1625,0 3.915,1.4758266 3.915,3.2942876 V 96.40457 c 0,1.817876 -1.75333,3.294355 -3.915,3.294355 -0.0233,0 -0.0425,-0.006 -0.065,-0.006 -0.28666,0.0578 -0.58916,0.0961 -0.89666,0.0961 H 18.91775 c -5.881,-0.0013 -10.6929833,3.883065 -11.0352,8.760755 z M 78.248083,33.089852 H 108.79 v 5.67742 h -7.66083 v 6.447043 H 93.52 v 6.445698 h -7.6625 v 6.404302 h -7.613 V 71.639113 H 117.315 V 64.506788 H 86.721667 v -5.676613 h 7.6625 v -6.44543 h 7.609163 v -6.447043 h 7.6625 v -6.400807 h 7.65834 V 25.918078 H 78.248083 Z M 60.976417,52.384745 h 18.199 V 45.21297 h -18.199 z M 17.783083,71.635753 H 26.2575 V 58.829906 h 7.659 v -0.04086 H 48.323 v 12.850067 h 8.52425 V 38.767272 h -7.661917 v -6.488173 h -7.660916 v -6.361021 h -8.475084 v 6.445363 h -7.661 v 6.44711 H 17.77625 v 32.825202 z"
     fill="#003366"
     id="path1"
     style="stroke-width:0.748356" />
</svg>
