<?xml version="1.0"?>
<svg xmlns="http://www.w3.org/2000/svg" viewBox="0 0 64 64" width="512" height="512"><g id="flat"><path d="M48,61H16l6-15c.6-1.537,1.35-3,3-3H39c1.65,0,2.4,1.463,3,3Z" style="fill:#d3843d"/><polygon points="17.6 57 46.4 57 43.2 49 20.8 49 17.6 57" style="fill:#ebb562"/><polygon points="17.6 57 16 61 48 61 46.4 57 17.6 57" style="fill:#995f5b"/><circle cx="32" cy="53" r="2" style="fill:#e4544f"/><circle cx="24" cy="53" r="2" style="fill:#e4544f"/><circle cx="40" cy="53" r="2" style="fill:#e4544f"/><path d="M27.949,46.316l-1.9-.632C27.265,42.042,29.889,42,30,42l.027,2C29.973,44,28.687,44.1,27.949,46.316Z" style="fill:#fff"/><path d="M36.051,46.316C35.313,44.1,34.027,44,33.973,44L34,42c.111,0,2.735.042,3.949,3.684Z" style="fill:#fff"/><rect x="31" y="43" width="2" height="3" style="fill:#fff"/><path d="M52,11,45.2,32.93l-.56,1.78L43,40c-.52,1.67-1.25,3-3,3H24c-1.75,0-2.48-1.33-3-3l-1.64-5.29-.56-1.78L12,11Z" style="fill:#995f5b"/><path d="M45.2,32.93l-.56,1.78-.09.18a8.632,8.632,0,0,1-3.1-3.47l-3.5,10.89a1,1,0,0,1-1.9,0L32,29.71l-4.05,12.6a1,1,0,0,1-1.9,0l-3.5-10.89a8.632,8.632,0,0,1-3.1,3.47l-.09-.18-.56-1.78a10.526,10.526,0,0,0,2.87-4.24L17.05,14.31l1.9-.62,3.8,11.81A46.029,46.029,0,0,0,24,14h2c0,6.92-.99,11.61-2.2,14.77L27,38.73l3.95-12.29-3.9-12.13,1.9-.62L32,23.18l3.05-9.49,1.9.62-3.9,12.13L37,38.73l3.2-9.96C38.99,25.61,38,20.92,38,14h2a46.029,46.029,0,0,0,1.25,11.5l3.8-11.81,1.9.62L42.33,28.69A10.632,10.632,0,0,0,45.2,32.93Z" style="fill:#f3bb59"/><rect x="26" y="27" width="2" height="2" style="fill:#f3bb59"/><rect x="36" y="27" width="2" height="2" style="fill:#f3bb59"/><polygon points="54 11 10 11 10 7 13.52 3 50.48 3 54 7 54 11" style="fill:#ebb562"/><polygon points="50.759 15 52 11 12 11 13.241 15 50.759 15" style="fill:#d3843d"/><rect x="10" y="6" width="8" height="2" style="fill:#995f5b"/><rect x="44" y="6" width="10" height="2" style="fill:#995f5b"/><rect x="40" y="6" width="2" height="2" style="fill:#995f5b"/></g></svg>
