<?xml version="1.0"?>
<svg xmlns="http://www.w3.org/2000/svg" viewBox="0 0 64 64" width="512" height="512"><g id="flat"><path d="M61.142,41h-4.67c-.46-.609-.188-3.26.639-5.758.73-2.915.433-5.132-.881-6.589C54.344,26.56,51.136,26.99,51,27.01l.279,1.98c.023,0,2.3-.3,3.473,1.01.834.933.976,2.533.441,4.684-.489,1.466-1.814,6.05-.051,7.8V47h2V44.414l2.293,2.293,1.414-1.414L58.556,43h2.586Z" style="fill:#394d5c"/><rect x="25" y="36" width="6" height="14" style="fill:#6e7a88"/><polygon points="43 34 43 44 45 50 51 50 51 44 53 34 43 34" style="fill:#6e7a88"/><path d="M14,14l2-4H9a6,6,0,0,0-6,6v2a8,8,0,0,0,8,8h2V20H9a2,2,0,0,1-2-2V16a2,2,0,0,1,2-2Z" style="fill:#6e7a88"/><path d="M41,20H35l-9-3H18l-2,3H13v8a2,2,0,0,0,2,2h6v2a4,4,0,0,0,4,4h6v2s1,1,6,1H52l1-5C53,25,47.627,20,41,20Z" style="fill:#98a5a6"/><rect x="45" y="50" width="6" height="4" style="fill:#98a5a6"/><rect x="25" y="50" width="6" height="4" style="fill:#98a5a6"/><path d="M16,30s-4,4-13,4c0,0,10,7,18-4Z" style="fill:#cfdfe8"/><path d="M21,31H16a1,1,0,0,1-.556-1.831C16.278,28.609,18,27.1,18,26h2a4.8,4.8,0,0,1-1.362,3H21Z" style="fill:#6e7a88"/><path d="M29.735,31.245,26,30V17l9,3v7.45A4,4,0,0,1,29.735,31.245Z" style="fill:#6e7a88"/><rect x="31.5" y="25.307" width="2" height="5.385" transform="translate(-5.568 47.777) rotate(-68.199)" style="fill:#98a1a1"/><rect x="31.5" y="21.307" width="2" height="5.385" transform="translate(-1.854 45.262) rotate(-68.199)" style="fill:#98a1a1"/><path d="M19.9,23.447l-1.79-.894,1-2A1,1,0,0,1,20,20h6v2H20.618Z" style="fill:#394d5c"/><path d="M47.023,31.217a8.047,8.047,0,0,0-3.369-5.4,7.794,7.794,0,0,0-5.412-.842l-.484-1.94a9.794,9.794,0,0,1,6.947,1.081,9.956,9.956,0,0,1,4.272,6.672Z" style="fill:#394d5c"/><rect x="11" y="53" width="24" height="2" style="fill:#394d5c"/><rect x="40" y="53" width="16" height="2" style="fill:#394d5c"/><rect x="7" y="53" width="2" height="2" style="fill:#394d5c"/><rect x="58" y="53" width="2" height="2" style="fill:#394d5c"/></g></svg>
