<?xml version="1.0" ?><!DOCTYPE svg  PUBLIC '-//W3C//DTD SVG 1.1//EN'  'http://www.w3.org/Graphics/SVG/1.1/DTD/svg11.dtd'><svg enable-background="new 0 0 32 32" height="32px" version="1.1" viewBox="0 0 32 32" width="32px" xml:space="preserve" xmlns="http://www.w3.org/2000/svg" xmlns:xlink="http://www.w3.org/1999/xlink"><g id="laptop_setting_gear_cogwheel"><g><g><g><g><path d="M28.5,24c-0.276,0-0.5-0.224-0.5-0.5v-16C28,7.225,27.775,7,27.5,7h-23C4.225,7,4,7.225,4,7.5v16       C4,23.776,3.776,24,3.5,24S3,23.776,3,23.5v-16C3,6.673,3.673,6,4.5,6h23C28.327,6,29,6.673,29,7.5v16       C29,23.776,28.776,24,28.5,24z" fill="#263238"/></g></g></g><g><g><path d="M28.5,28h-25C2.121,28,1,26.879,1,25.5C1,25.224,1.224,25,1.5,25h11c0.276,0,0.5,0.224,0.5,0.5      S12.776,26,12.5,26H2.086c0.206,0.582,0.762,1,1.414,1h25c0.652,0,1.208-0.418,1.414-1H19.5c-0.276,0-0.5-0.224-0.5-0.5      s0.224-0.5,0.5-0.5h11c0.276,0,0.5,0.224,0.5,0.5C31,26.879,29.879,28,28.5,28z" fill="#263238"/></g></g></g><g><path d="M16.899,24h-1.799c-0.235,0-0.438-0.164-0.488-0.394l-0.296-1.353c-0.415-0.121-0.814-0.287-1.194-0.496    l-1.166,0.747c-0.198,0.126-0.457,0.099-0.623-0.067l-1.271-1.271C9.896,21,9.867,20.74,9.994,20.543l0.747-1.166    c-0.209-0.38-0.375-0.779-0.496-1.194l-1.352-0.296c-0.229-0.05-0.393-0.253-0.393-0.488V15.6c0-0.235,0.163-0.438,0.393-0.488    l1.351-0.296c0.123-0.416,0.289-0.815,0.497-1.194l-0.747-1.166c-0.127-0.197-0.099-0.457,0.067-0.623l1.271-1.271    c0.166-0.166,0.425-0.193,0.623-0.067l1.167,0.747c0.382-0.209,0.781-0.375,1.193-0.495l0.296-1.352    C14.662,9.163,14.865,9,15.101,9h1.799c0.235,0,0.438,0.163,0.488,0.394l0.296,1.352c0.413,0.12,0.813,0.286,1.193,0.495    l1.167-0.747c0.198-0.126,0.457-0.099,0.623,0.067l1.271,1.271c0.166,0.166,0.194,0.426,0.067,0.623l-0.747,1.167    c0.209,0.381,0.375,0.78,0.495,1.193l1.353,0.296c0.229,0.05,0.393,0.253,0.393,0.488v1.799c0,0.235-0.163,0.438-0.393,0.488    l-1.353,0.296c-0.12,0.412-0.286,0.812-0.495,1.193l0.747,1.167c0.127,0.197,0.099,0.457-0.067,0.623l-1.271,1.273    c-0.167,0.167-0.427,0.193-0.624,0.067l-1.166-0.749c-0.379,0.209-0.778,0.374-1.193,0.495l-0.296,1.354    C17.338,23.836,17.135,24,16.899,24z M15.503,23h0.994l0.275-1.259c0.041-0.188,0.187-0.337,0.374-0.381    c0.524-0.122,1.021-0.329,1.479-0.613c0.162-0.101,0.37-0.101,0.534,0.004l1.084,0.696l0.703-0.703l-0.695-1.086    c-0.104-0.162-0.105-0.369-0.005-0.532c0.287-0.464,0.494-0.962,0.614-1.479c0.044-0.188,0.192-0.334,0.381-0.375l1.257-0.275    v-0.994l-1.257-0.275c-0.188-0.041-0.337-0.187-0.381-0.374c-0.121-0.52-0.328-1.018-0.614-1.48    c-0.101-0.163-0.099-0.37,0.005-0.532l0.695-1.085l-0.703-0.703l-1.085,0.695c-0.161,0.104-0.369,0.105-0.532,0.005    c-0.463-0.286-0.961-0.493-1.48-0.614c-0.188-0.044-0.333-0.192-0.374-0.38L16.497,10h-0.994l-0.275,1.258    c-0.041,0.188-0.187,0.336-0.375,0.38c-0.518,0.12-1.016,0.327-1.479,0.614c-0.163,0.101-0.371,0.099-0.532-0.005l-1.085-0.695    l-0.703,0.703l0.695,1.085c0.104,0.162,0.105,0.37,0.004,0.533c-0.284,0.456-0.491,0.954-0.616,1.48    c-0.044,0.188-0.191,0.332-0.379,0.373l-1.256,0.275v0.994l1.257,0.275c0.188,0.041,0.337,0.187,0.381,0.375    c0.122,0.522,0.328,1.02,0.613,1.479c0.102,0.163,0.101,0.371-0.004,0.533l-0.695,1.085l0.703,0.703l1.085-0.695    c0.163-0.104,0.372-0.104,0.533-0.004c0.459,0.285,0.956,0.491,1.479,0.613c0.188,0.044,0.334,0.192,0.375,0.381L15.503,23z     M15.999,20c-1.93,0-3.5-1.57-3.5-3.5s1.57-3.5,3.5-3.5s3.5,1.57,3.5,3.5c0,0.276-0.224,0.5-0.5,0.5s-0.5-0.224-0.5-0.5    c0-1.379-1.121-2.5-2.5-2.5s-2.5,1.121-2.5,2.5s1.121,2.5,2.5,2.5c0.167,0,0.33-0.017,0.487-0.047    c0.268-0.058,0.534,0.122,0.587,0.394c0.054,0.271-0.123,0.534-0.394,0.587C16.46,19.978,16.232,20,15.999,20z" fill="#263238"/><circle cx="18.501" cy="18.572" fill="#263238" r="0.5"/></g></g></svg>