<?xml version="1.0" encoding="UTF-8" standalone="no"?>
<svg
   xmlns:dc="http://purl.org/dc/elements/1.1/"
   xmlns:cc="http://creativecommons.org/ns#"
   xmlns:rdf="http://www.w3.org/1999/02/22-rdf-syntax-ns#"
   xmlns:svg="http://www.w3.org/2000/svg"
   xmlns="http://www.w3.org/2000/svg"
   xmlns:sodipodi="http://sodipodi.sourceforge.net/DTD/sodipodi-0.dtd"
   xmlns:inkscape="http://www.inkscape.org/namespaces/inkscape"
   data-name="025_SCIENCE"
   id="_025_SCIENCE"
   viewBox="0 0 150 186"
   version="1.1"
   sodipodi:docname="exercicio.svg"
   inkscape:version="0.92.5 (2060ec1f9f, 2020-04-08)"
   width="150"
   height="186">
  <metadata
     id="metadata23">
    <rdf:RDF>
      <cc:Work
         rdf:about="">
        <dc:format>image/svg+xml</dc:format>
        <dc:type
           rdf:resource="http://purl.org/dc/dcmitype/StillImage" />
      </cc:Work>
    </rdf:RDF>
  </metadata>
  <sodipodi:namedview
     pagecolor="#ffffff"
     bordercolor="#666666"
     borderopacity="1"
     objecttolerance="10"
     gridtolerance="10"
     guidetolerance="10"
     inkscape:pageopacity="0"
     inkscape:pageshadow="2"
     inkscape:window-width="1920"
     inkscape:window-height="1009"
     id="namedview21"
     showgrid="false"
     inkscape:zoom="4.4139785"
     inkscape:cx="75"
     inkscape:cy="93"
     inkscape:window-x="0"
     inkscape:window-y="0"
     inkscape:window-maximized="1"
     inkscape:current-layer="_025_SCIENCE" />
  <defs
     id="defs4">
    <style
       id="style2">.cls-1{fill:#333;}</style>
  </defs>
  <g
     id="g829"
     transform="matrix(7.8947368,0,0,9.3,-15.789474,-18.6)">
    <path
       style="fill:#003366;fill-opacity:1"
       id="path6"
       d="M 20,22 H 5 A 1,1 0 0 1 4,21 V 3 A 1,1 0 0 1 5,2 h 15 a 1,1 0 0 1 1,1 v 15 a 1,1 0 0 1 -2,0 V 4 H 6 v 16 h 14 a 1,1 0 0 1 0,2 z"
       class="cls-1"
       inkscape:connector-curvature="0" />
    <path
       style="fill:#003366;fill-opacity:1"
       id="path8"
       d="M 7,7 H 3 A 1,1 0 0 1 3,5 h 4 a 1,1 0 0 1 0,2 z"
       class="cls-1"
       inkscape:connector-curvature="0" />
    <path
       style="fill:#003366;fill-opacity:1"
       id="path10"
       d="M 7,11 H 3 A 1,1 0 0 1 3,9 h 4 a 1,1 0 0 1 0,2 z"
       class="cls-1"
       inkscape:connector-curvature="0" />
    <path
       style="fill:#003366;fill-opacity:1"
       id="path12"
       d="M 7,15 H 3 a 1,1 0 0 1 0,-2 h 4 a 1,1 0 0 1 0,2 z"
       class="cls-1"
       inkscape:connector-curvature="0" />
    <path
       style="fill:#003366;fill-opacity:1"
       id="path14"
       d="M 7,19 H 3 a 1,1 0 0 1 0,-2 h 4 a 1,1 0 0 1 0,2 z"
       class="cls-1"
       inkscape:connector-curvature="0" />
    <path
       style="fill:#003366;fill-opacity:1"
       id="path16"
       d="m 15,11 h -4 a 1,1 0 0 1 0,-2 h 4 a 1,1 0 0 1 0,2 z"
       class="cls-1"
       inkscape:connector-curvature="0" />
    <path
       style="fill:#003366;fill-opacity:1"
       id="path18"
       d="m 15,15 h -4 a 1,1 0 0 1 0,-2 h 4 a 1,1 0 0 1 0,2 z"
       class="cls-1"
       inkscape:connector-curvature="0" />
  </g>
</svg>
