<?xml version="1.0" encoding="UTF-8" standalone="no"?>
<svg
   width="125"
   height="125"
   viewBox="0 0 125 125"
   fill="none"
   version="1.1"
   id="svg9"
   sodipodi:docname="forum.svg"
   inkscape:version="1.3 (0e150ed6c4, 2023-07-21)"
   xmlns:inkscape="http://www.inkscape.org/namespaces/inkscape"
   xmlns:sodipodi="http://sodipodi.sourceforge.net/DTD/sodipodi-0.dtd"
   xmlns="http://www.w3.org/2000/svg"
   xmlns:svg="http://www.w3.org/2000/svg">
  <sodipodi:namedview
     id="namedview9"
     pagecolor="#ffffff"
     bordercolor="#000000"
     borderopacity="0.25"
     inkscape:showpageshadow="2"
     inkscape:pageopacity="0.0"
     inkscape:pagecheckerboard="0"
     inkscape:deskcolor="#d1d1d1"
     inkscape:zoom="5.74"
     inkscape:cx="75"
     inkscape:cy="75"
     inkscape:window-width="1920"
     inkscape:window-height="1043"
     inkscape:window-x="0"
     inkscape:window-y="0"
     inkscape:window-maximized="1"
     inkscape:current-layer="svg9" />
  <g
     clip-path="url(#clip0_9_163)"
     id="g9"
     transform="scale(0.83333333)">
    <path
       d="M 28.125,39.0625 V 10.9375 C 28.125,9.3125 28.3125,7.75 28.75,6.25 H 10.9375 C 4.9375,6.25 0,11.1875 0,17.1875 v 28.125 c 0,6 4.9375,10.9375 10.9375,10.9375 H 13.25 l 8,10.625 c 0.875,1.125 2.1875,1.8125 3.5625,1.875 H 25 c 1.375,0 2.625,-0.5625 3.5,-1.625 l 9.375,-10.6875 c -5.8125,-3.625 -9.75,-10.0625 -9.75,-17.375 z"
       fill="#003366"
       id="path1" />
    <path
       d="M 139.062,6.25 H 121.25 c 0.437,1.5 0.625,3.0625 0.625,4.6875 v 28.125 c 0,7.3125 -3.937,13.75 -9.75,17.375 L 121.5,67.125 c 0.875,1.0625 2.125,1.625 3.5,1.625 h 0.188 c 1.375,-0.0625 2.687,-0.75 3.562,-1.875 l 7.938,-10.625 h 2.374 c 6,0 10.938,-4.9375 10.938,-10.9375 v -28.125 c 0,-6 -4.938,-10.9375 -10.938,-10.9375 z"
       fill="#003366"
       id="path2" />
    <path
       d="m 75,62.5 c -0.0562,0 -0.1187,0 -0.175,0 C 73.4125,62.4437 72.1,61.7562 71.25,60.625 L 63.2812,50 H 48.4375 C 42.4063,50 37.5,45.0937 37.5,39.0625 V 10.9375 C 37.5,4.90624 42.4063,-7.62939e-6 48.4375,-7.62939e-6 H 101.562 C 107.594,-7.62939e-6 112.5,4.90624 112.5,10.9375 v 28.125 C 112.5,45.0937 107.594,50 101.562,50 H 88.0625 L 78.525,60.9 C 77.6375,61.9187 76.35,62.5 75,62.5 Z"
       fill="#003366"
       id="path3" />
    <path
       d="m 25,106.25 c 6.9036,0 12.5,-5.596 12.5,-12.5 0,-6.9036 -5.5964,-12.5 -12.5,-12.5 -6.9036,0 -12.5,5.5964 -12.5,12.5 0,6.904 5.5964,12.5 12.5,12.5 z"
       fill="#003366"
       id="path4" />
    <path
       d="M 41.6875,115 C 35.375,119.75 31.25,127.375 31.25,135.938 V 137.5 H 4.6875 C 2.125,137.5 0,135.375 0,132.812 v -3.124 C 0,120.188 7.6875,112.5 17.1875,112.5 h 15.625 c 3.25,0 6.3125,0.937 8.875,2.5 z"
       fill="#003366"
       id="path5" />
    <path
       d="m 125,106.25 c 6.904,0 12.5,-5.596 12.5,-12.5 0,-6.9036 -5.596,-12.5 -12.5,-12.5 -6.904,0 -12.5,5.5964 -12.5,12.5 0,6.904 5.596,12.5 12.5,12.5 z"
       fill="#003366"
       id="path6" />
    <path
       d="m 150,129.688 v 3.124 c 0,2.563 -2.125,4.688 -4.687,4.688 H 118.75 v -1.562 c 0,-8.563 -4.125,-16.188 -10.438,-20.938 2.563,-1.563 5.626,-2.5 8.876,-2.5 h 15.625 c 9.5,0 17.187,7.688 17.187,17.188 z"
       fill="#003366"
       id="path7" />
    <path
       d="m 75,109.375 c 10.3553,0 18.75,-8.395 18.75,-18.75 0,-10.3553 -8.3947,-18.75 -18.75,-18.75 -10.3553,0 -18.75,8.3947 -18.75,18.75 0,10.355 8.3947,18.75 18.75,18.75 z"
       fill="#003366"
       id="path8" />
    <path
       d="m 92.1875,118.75 h -34.375 c -9.4812,0 -17.1875,7.706 -17.1875,17.188 v 9.374 c 0,2.588 2.1,4.688 4.6875,4.688 h 59.3755 c 2.587,0 4.687,-2.1 4.687,-4.688 v -9.374 c 0,-9.482 -7.706,-17.188 -17.1875,-17.188 z"
       fill="#003366"
       id="path9" />
  </g>
  <defs
     id="defs9">
    <clipPath
       id="clip0_9_163">
      <rect
         width="150"
         height="150"
         fill="#ffffff"
         id="rect9"
         x="0"
         y="0" />
    </clipPath>
  </defs>
</svg>
