<svg width="150" height="150" viewBox="0 0 150 150" fill="none" xmlns="http://www.w3.org/2000/svg">
<path d="M118.966 118.966H116.379H111.207H108.621C107.193 118.966 106.034 120.127 106.034 121.552V142.241C106.034 146.519 109.516 150 113.793 150C118.071 150 121.552 146.519 121.552 142.241V121.552C121.552 120.127 120.393 118.966 118.966 118.966Z" fill="#003366"/>
<path d="M77.5862 43.9655V23.2759C77.5862 16.1457 83.3871 10.3448 90.5173 10.3448C97.6474 10.3448 103.448 16.1457 103.448 23.2759H98.2759C98.2759 18.9983 94.7948 15.5172 90.5173 15.5172C86.2397 15.5172 82.7586 18.9983 82.7586 23.2759V39.9647C89.2707 32.5655 98.356 27.5121 108.621 26.2216V7.75862C108.621 3.48103 105.14 0 100.862 0H7.75862C3.48103 0 0 3.48103 0 7.75862V59.4828C0 63.7603 3.48103 67.2414 7.75862 67.2414H45.3491L55.4612 82.4095C55.8491 82.9862 56.8966 82.6707 56.8966 81.975V67.2414H72.4138C72.4138 59.7672 74.4362 52.769 77.9172 46.7121C77.7207 45.8095 77.5862 44.894 77.5862 43.9655ZM31.0345 56.8966H25.8621V41.3793H10.3448V56.8966H5.17241V23.2759C5.17241 16.1457 10.9733 10.3448 18.1035 10.3448C25.2336 10.3448 31.0345 16.1457 31.0345 23.2759V56.8966ZM67.2414 43.9655C67.2414 51.0957 61.4405 56.8966 54.3103 56.8966H41.3793V10.3448H54.3103C61.4405 10.3448 67.2414 16.1457 67.2414 23.2759C67.2414 27.5017 65.2035 31.2595 62.0612 33.6207C65.2035 35.9819 67.2414 39.7397 67.2414 43.9655Z" fill="#003366"/>
<path d="M54.3103 36.2069H46.5517V51.7241H54.3103C58.5879 51.7241 62.069 48.2431 62.069 43.9655C62.069 39.6879 58.5879 36.2069 54.3103 36.2069Z" fill="#003366"/>
<path d="M54.3103 15.5172H46.5517V31.0345H54.3103C58.5879 31.0345 62.069 27.5534 62.069 23.2759C62.069 18.9983 58.5879 15.5172 54.3103 15.5172Z" fill="#003366"/>
<path d="M18.1034 15.5172C13.8259 15.5172 10.3448 18.9983 10.3448 23.2759V36.2069H25.8621V23.2759C25.8621 18.9983 22.381 15.5172 18.1034 15.5172Z" fill="#003366"/>
<path d="M116.379 113.793C117.807 113.793 118.966 112.632 118.966 111.207V108.261C117.266 108.476 115.549 108.621 113.793 108.621C112.037 108.621 110.32 108.476 108.621 108.261V111.207C108.621 112.632 109.779 113.793 111.207 113.793H116.379Z" fill="#003366"/>
<path d="M113.793 31.0345C93.8276 31.0345 77.5862 47.2759 77.5862 67.2414C77.5862 87.2069 93.8276 103.448 113.793 103.448C133.759 103.448 150 87.2069 150 67.2414C150 47.2759 133.759 31.0345 113.793 31.0345ZM113.793 95.6896C98.0819 95.6896 85.3448 82.9526 85.3448 67.2414C85.3448 51.5302 98.0819 38.7931 113.793 38.7931C129.504 38.7931 142.241 51.5302 142.241 67.2414C142.241 82.9526 129.504 95.6896 113.793 95.6896Z" fill="#003366"/>
<path d="M106.034 73.9293L100.104 67.9991L96.4474 71.656L106.034 81.2431L131.139 56.1388L127.482 52.4819L106.034 73.9293Z" fill="#003366"/>
</svg>
