<?xml version="1.0"?>
<svg xmlns="http://www.w3.org/2000/svg" viewBox="0 0 64 64" width="512" height="512"><g id="flat"><path d="M29,20c-1.246-2.907-5.978-8-5.978-8S18.246,17.093,17,20c-3,7-1,28-1,28H30S32,27,29,20Z" style="fill:#d9833b"/><rect x="37" y="45" width="8" height="12" style="fill:#6f1d48"/><rect x="35" y="39" width="12" height="6" style="fill:#995f5b"/><rect x="35" y="57" width="12" height="4" style="fill:#995f5b"/><path d="M45,39c0-14,4-21,1-28a57.6,57.6,0,0,0-5-8h0a60.8,60.8,0,0,0-4.884,8c-3,7,.884,14,.884,28Z" style="fill:#98a1a1"/><rect x="37" y="45" width="8" height="4" style="fill:#6f1d48"/><rect x="37" y="49" width="8" height="4" style="fill:#995f5b"/><rect x="40" y="29" width="2" height="10" style="fill:#cfdfe8"/><rect x="43.5" y="15.964" width="2" height="7.071" transform="translate(-0.755 37.178) rotate(-45)" style="fill:#cfdfe8"/><rect x="43.5" y="10.964" width="2" height="7.071" transform="translate(2.781 35.713) rotate(-45)" style="fill:#cfdfe8"/><rect x="40" y="25" width="2" height="2" style="fill:#cfdfe8"/><rect x="16" y="48" width="14" height="4" style="fill:#995f5b"/><rect x="20" y="40" width="2" height="8" style="fill:#394d5c"/><rect x="24" y="43" width="2" height="5" style="fill:#394d5c"/><path d="M29.479,21.38,15.848,24.788a82.569,82.569,0,0,0-.466,12.117L30.65,33.088A48.652,48.652,0,0,0,29.479,21.38Z" style="fill:#995f5b"/><rect x="14.799" y="30.5" width="11.402" height="2" transform="translate(-7.555 6.492) rotate(-15.231)" style="fill:#d9833b"/><rect x="18.799" y="25.5" width="11.402" height="2" transform="translate(-6.101 7.367) rotate(-15.231)" style="fill:#d9833b"/></g></svg>
