<svg width="512" height="512" viewBox="0 0 512 512" fill="none" xmlns="http://www.w3.org/2000/svg">
<path d="M376 184C376 312.128 322.272 488 256 488C189.728 488 136 312.128 136 184C136 55.872 200 24 256 24C312 24 376 55.872 376 184Z" fill="#EBB562"/>
<path d="M296.002 79.9982L256.003 39.9986L216.003 79.9982L256.003 119.998L296.002 79.9982Z" fill="#E97131"/>
<path d="M364.84 294.864L275.2 272L288 304L358.44 324.72C360.8 314.896 362.92 304.92 364.84 294.864Z" fill="#E97131"/>
<path d="M147.2 294.864L236.848 272L224.048 304L153.6 324.72C151.248 314.896 149.128 304.92 147.2 294.864Z" fill="#E97131"/>
<path d="M374.824 155.864C359.443 142.658 339.733 135.586 319.464 136C307.821 135.578 296.211 137.484 285.314 141.605C274.416 145.726 264.45 151.98 256 160C247.55 151.98 237.584 145.726 226.686 141.605C215.789 137.484 204.179 135.578 192.536 136C172.267 135.586 152.557 142.658 137.176 155.864C136.432 164.696 136 174.024 136 184C136 198.448 136.72 213.52 138.024 228.864C153.305 241.585 172.656 248.378 192.536 248C204.179 248.422 215.789 246.516 226.686 242.395C237.584 238.274 247.55 232.02 256 224C264.45 232.02 274.416 238.274 285.314 242.395C296.211 246.516 307.821 248.422 319.464 248C339.344 248.378 358.695 241.585 373.976 228.864C375.28 213.52 376 198.448 376 184C376 174.024 375.568 164.704 374.824 155.864Z" fill="#E97131"/>
<path d="M248 192C248 192 222.088 216 200 216C177.912 216 152 192 152 192C152 192 177.912 168 200 168C222.088 168 248 192 248 192Z" fill="#F3E56D"/>
<path d="M360 192C360 192 334.088 216 312 216C289.912 216 264 192 264 192C264 192 289.912 168 312 168C334.088 168 360 192 360 192Z" fill="#F3E56D"/>
<path d="M288 336L256 352L224 336V304L256 224L288 304V336Z" fill="#DD3E46"/>
<path d="M346.752 366.752C346.752 366.752 306.12 449.248 256 449.248C205.88 449.248 165.248 366.752 165.248 366.752C194.317 377.457 225.023 383.039 256 383.248C286.977 383.039 317.683 377.457 346.752 366.752Z" fill="#995F5B"/>
<path d="M358.44 324.72L288 304V336L350.2 355.44C353.171 345.44 355.917 335.2 358.44 324.72Z" fill="#67C086"/>
<path d="M153.6 324.72L224.048 304V336L161.848 355.44C158.883 345.44 156.133 335.2 153.6 324.72Z" fill="#67C086"/>
<path d="M200 96H184V112H200V96Z" fill="#DD3E46"/>
<path d="M328 96H312V112H328V96Z" fill="#DD3E46"/>
<path d="M224.048 304L256 320L288 304V336L256 352L224.048 336V304Z" fill="#F1997E"/>
</svg>
