<?xml version="1.0"?>
<svg xmlns="http://www.w3.org/2000/svg" viewBox="0 0 64 64" width="512" height="512"><g id="flat"><path d="M15,32,11,52S1,47,5,26A28.185,28.185,0,0,0,15,32Z" style="fill:#dd3e46"/><path d="M49,32l4,20s10-5,6-26A28.185,28.185,0,0,1,49,32Z" style="fill:#dd3e46"/><path d="M45,33a38.112,38.112,0,0,1-13,2,38.112,38.112,0,0,1-13-2L15,53h9a8,8,0,0,1,16,0h9Z" style="fill:#dd3e46"/><path d="M46.2,39H17.8l-1.6,8H26.721a7.967,7.967,0,0,1,10.558,0H47.8Z" style="fill:#995f5b"/><circle cx="32" cy="53" r="8" style="fill:#ebb562"/><rect x="17.438" y="30" width="4.123" height="2" transform="translate(-15.305 42.395) rotate(-75.957)" style="fill:#e97131"/><rect x="43.5" y="28.938" width="2" height="4.123" transform="translate(-6.19 11.718) rotate(-14.036)" style="fill:#e97131"/><circle cx="32" cy="42" r="3" style="fill:#e97131"/><circle cx="32" cy="49" r="4" style="fill:#dd3e46"/><rect x="31" y="57" width="2" height="4" style="fill:#995f5b"/><rect x="25.379" y="56.5" width="4.243" height="2" transform="translate(-32.604 36.287) rotate(-45)" style="fill:#995f5b"/><rect x="35.5" y="55.379" width="2" height="4.243" transform="translate(-29.968 42.651) rotate(-45)" style="fill:#995f5b"/><rect x="24" y="53" width="3" height="2" style="fill:#995f5b"/><rect x="37" y="53" width="3" height="2" style="fill:#995f5b"/><rect x="3.764" y="23" width="4.472" height="2" transform="translate(-18.15 18.633) rotate(-63.435)" style="fill:#e97131"/><rect x="13.764" y="29" width="4.472" height="2" transform="translate(-17.988 30.894) rotate(-63.435)" style="fill:#e97131"/><path d="M4.12,33H9.556c.025-1.055.1-2.188.243-3.413A29.537,29.537,0,0,1,6.13,27L5,26l-.174,1A51.7,51.7,0,0,0,4.12,33Z" style="fill:#ebb562"/><path d="M9.556,33H4.12a36.231,36.231,0,0,0,.14,6h5.8A25.263,25.263,0,0,1,9.556,33Z" style="fill:#e97131"/><path d="M5.669,45H12.4l.1-.515A12.56,12.56,0,0,1,10.064,39H4.26A24.22,24.22,0,0,0,5.669,45Z" style="fill:#ebb562"/><path d="M5.669,45C7.72,50.351,11,52,11,52l1.4-7Z" style="fill:#e97131"/><rect x="57" y="21.764" width="2" height="4.472" transform="translate(-4.61 28.472) rotate(-26.565)" style="fill:#e97131"/><rect x="47" y="27.764" width="2" height="4.472" transform="translate(-8.349 24.633) rotate(-26.565)" style="fill:#e97131"/><path d="M59.88,33H54.444c-.025-1.055-.1-2.188-.243-3.413A29.537,29.537,0,0,0,57.87,27L59,26l.174,1A51.7,51.7,0,0,1,59.88,33Z" style="fill:#ebb562"/><path d="M54.444,33H59.88a36.231,36.231,0,0,1-.14,6h-5.8A25.263,25.263,0,0,0,54.444,33Z" style="fill:#e97131"/><path d="M58.331,45H51.6l-.1-.515A12.56,12.56,0,0,0,53.936,39h5.8A24.22,24.22,0,0,1,58.331,45Z" style="fill:#ebb562"/><path d="M58.331,45C56.28,50.351,53,52,53,52l-1.4-7Z" style="fill:#e97131"/><polygon points="23.143 39 17.8 39 16.2 47 20.857 47 23.143 39" style="fill:#6f1d48"/><polygon points="40.857 39 46.2 39 47.8 47 43.143 47 40.857 39" style="fill:#6f1d48"/><rect x="17.919" y="50.5" width="3.162" height="2" transform="translate(-35.524 53.705) rotate(-71.556)" style="fill:#f1997e"/><rect x="43.5" y="49.919" width="2" height="3.162" transform="translate(-14.002 16.715) rotate(-18.435)" style="fill:#f1997e"/><polygon points="23 39 19 33 17.8 39 23 39" style="fill:#f1997e"/><polygon points="41 39 45 33 46.2 39 41 39" style="fill:#f1997e"/><rect x="3" y="3" width="4" height="4" style="fill:#dd3e46"/><rect x="57" y="3" width="4" height="4" style="fill:#dd3e46"/><path d="M61,12c0,12-14.939,19-29.093,19S3,24,3,12V11H7C7,22.046,19.8,27,32,27s25-4.954,25-16h4Z" style="fill:#995f5b"/><rect x="4" y="7" width="2" height="4" style="fill:#e97131"/><rect x="58" y="7" width="2" height="4" style="fill:#e97131"/><circle cx="32" cy="29" r="2" style="fill:#e97131"/></g></svg>
