<?xml version="1.0" encoding="UTF-8" standalone="no"?>
<svg
   xmlns:dc="http://purl.org/dc/elements/1.1/"
   xmlns:cc="http://creativecommons.org/ns#"
   xmlns:rdf="http://www.w3.org/1999/02/22-rdf-syntax-ns#"
   xmlns:svg="http://www.w3.org/2000/svg"
   xmlns="http://www.w3.org/2000/svg"
   xmlns:sodipodi="http://sodipodi.sourceforge.net/DTD/sodipodi-0.dtd"
   xmlns:inkscape="http://www.inkscape.org/namespaces/inkscape"
   version="1.1"
   width="150"
   height="150"
   style="clip-rule:evenodd;fill-rule:evenodd;image-rendering:optimizeQuality;shape-rendering:geometricPrecision;text-rendering:geometricPrecision"
   id="svg22"
   sodipodi:docname="poem.svg"
   inkscape:version="0.92.5 (2060ec1f9f, 2020-04-08)">
  <metadata
     id="metadata28">
    <rdf:RDF>
      <cc:Work
         rdf:about="">
        <dc:format>image/svg+xml</dc:format>
        <dc:type
           rdf:resource="http://purl.org/dc/dcmitype/StillImage" />
      </cc:Work>
    </rdf:RDF>
  </metadata>
  <defs
     id="defs26" />
  <sodipodi:namedview
     pagecolor="#ffffff"
     bordercolor="#666666"
     borderopacity="1"
     objecttolerance="10"
     gridtolerance="10"
     guidetolerance="10"
     inkscape:pageopacity="0"
     inkscape:pageshadow="2"
     inkscape:window-width="1920"
     inkscape:window-height="1009"
     id="namedview24"
     showgrid="false"
     inkscape:zoom="0.4609375"
     inkscape:cx="-114.19067"
     inkscape:cy="253.50024"
     inkscape:window-x="0"
     inkscape:window-y="0"
     inkscape:window-maximized="1"
     inkscape:current-layer="svg22" />
  <g
     id="g831"
     transform="matrix(0.29775736,0,0,0.29520281,-1.0560277,-0.40590594)">
    <g
       style="fill:#003366;fill-opacity:1"
       id="g4">
      <path
         id="path2"
         d="m 62.5,1.5 c 106.669,-0.33332 213.335,1e-5 320,1 -5.051,5.43146 -8.551,11.7648 -10.5,19 -0.333,72 -0.667,144 -1,216 -8.458,16.211 -8.624,32.544 -0.5,49 -12.602,1.435 -19.769,8.435 -21.5,21 -2.83,21.931 -1.497,43.598 4,65 3.182,12.039 9.182,22.372 18,31 0.499,4.321 0.666,8.654 0.5,13 -8.673,-0.166 -17.34,0 -26,0.5 -8.779,2.454 -13.612,8.288 -14.5,17.5 -8.326,1.336 -14.659,5.67 -19,13 -3.483,-5.136 -8.316,-8.303 -14.5,-9.5 -86.999,-0.5 -173.999,-0.667 -261,-0.5 -0.1667,-136.667 0,-273.334 0.5,-410 2.6799,-14.5122 11.1799,-23.17889 25.5,-26 z m 11,65 c 86.667,-0.1667 173.334,0 260,0.5 6.129,2.5813 7.462,6.7479 4,12.5 -1.165,1.0836 -2.498,1.9169 -4,2.5 -86.333,0.6667 -172.667,0.6667 -259,0 -5.9503,-2.4767 -7.4503,-6.6434 -4.5,-12.5 1.1451,-1.1364 2.3117,-2.1364 3.5,-3 z m 1,58 c 86.334,-0.167 172.667,0 259,0.5 6.136,2.674 7.47,6.84 4,12.5 -1.165,1.084 -2.498,1.917 -4,2.5 -86.333,0.667 -172.667,0.667 -259,0 -5.9503,-2.477 -7.4503,-6.643 -4.5,-12.5 1.4087,-1.281 2.9087,-2.281 4.5,-3 z m 0,58 c 86.334,-0.167 172.667,0 259,0.5 5.953,2.525 7.453,6.691 4.5,12.5 -1.171,1.393 -2.671,2.227 -4.5,2.5 -86.667,0.667 -173.333,0.667 -260,0 -5.0352,-3.013 -6.2019,-7.18 -3.5,-12.5 1.6516,-0.899 3.1516,-1.899 4.5,-3 z m 0,58 c 86.334,-0.167 172.667,0 259,0.5 7.6,4.579 7.933,9.579 1,15 -87,0.667 -174,0.667 -261,0 -4.3608,-2.226 -5.8608,-5.726 -4.5,-10.5 1.4055,-2.244 3.2389,-3.91 5.5,-5 z m 1,58 c 85.667,-0.167 171.334,0 257,0.5 6.854,1.965 8.688,6.132 5.5,12.5 -0.903,1.201 -2.069,2.035 -3.5,2.5 -87,0.667 -174,0.667 -261,0 -4.3608,-2.226 -5.8608,-5.726 -4.5,-10.5 1.8049,-2.326 3.9716,-3.992 6.5,-5 z m 1,58 c 54.334,-0.167 108.668,0 163,0.5 7.067,1.634 9.233,5.8 6.5,12.5 -0.903,1.201 -2.069,2.035 -3.5,2.5 -56.333,0.667 -112.667,0.667 -169,0 -4.3608,-2.226 -5.8608,-5.726 -4.5,-10.5 1.9133,-2.78 4.4133,-4.447 7.5,-5 z"
         style="opacity:0.98000004;fill:#003366;fill-opacity:1"
         inkscape:connector-curvature="0" />
    </g>
    <g
       style="fill:#003366;fill-opacity:1"
       id="g8">
      <path
         id="path6"
         d="m 406.5,1.5 c 14.828,-0.0036 24.662,6.9964 29.5,21 0.667,10 0.667,20 0,30 -0.833,2.1667 -2.333,3.6667 -4.5,4.5 -16.997,0.4999 -33.997,0.6666 -51,0.5 -0.166,-9.6724 0,-19.3391 0.5,-29 2.222,-15.0529 10.722,-24.05286 25.5,-27 z"
         style="opacity:0.96799999;fill:#003366;fill-opacity:1"
         inkscape:connector-curvature="0" />
    </g>
    <g
       style="fill:#003366;fill-opacity:1"
       id="g12">
      <path
         id="path10"
         d="m 494.5,84.5 c 11.275,-0.2073 15.109,5.126 11.5,16 -1.167,6.174 -3.501,11.84 -7,17 -6.812,8.674 -12.812,17.674 -18,27 5.2,-4.865 10.033,-10.032 14.5,-15.5 2.716,-2.151 5.216,-1.984 7.5,0.5 0.179,24.282 -5.154,47.282 -16,69 -10.008,15.35 -20.508,30.35 -31.5,45 0.167,0.333 0.333,0.667 0.5,1 7.546,-6.548 15.379,-12.715 23.5,-18.5 5.315,-0.499 7.315,2.001 6,7.5 -4.089,32.695 -13.589,63.695 -28.5,93 -4.089,6.093 -8.922,11.593 -14.5,16.5 4.333,0.333 8.667,0.667 13,1 2.58,1.481 3.413,3.648 2.5,6.5 -11.466,13.8 -23.966,26.633 -37.5,38.5 -8.461,6.895 -18.128,11.062 -29,12.5 -1.745,4.9 -3.078,9.9 -4,15 -4.384,0.326 -8.717,-0.008 -13,-1 1.975,-5.234 3.642,-10.567 5,-16 -10.756,-11.517 -17.256,-25.184 -19.5,-41 -2.812,-17.288 -3.145,-34.621 -1,-52 0.51,-6.178 3.843,-9.178 10,-9 2.3,-0.006 4.466,0.494 6.5,1.5 5.117,7.452 10.617,14.618 16.5,21.5 0.167,-0.333 0.333,-0.667 0.5,-1 -5.221,-15.441 -10.721,-30.774 -16.5,-46 -2,-7.667 -2,-15.333 0,-23 7.399,-17.966 16.232,-35.132 26.5,-51.5 2.333,-2 4.667,-2 7,0 3.5,4.833 7,9.667 10.5,14.5 -2.2,-9.1 -5.033,-18.1 -8.5,-27 0.219,-1.438 0.719,-2.771 1.5,-4 23.609,-35.459 50.776,-68.126 81.5,-98 z"
         style="opacity:0.9729996;fill:#003366;fill-opacity:1"
         inkscape:connector-curvature="0" />
    </g>
    <g
       style="fill:#003366;fill-opacity:1"
       id="g16">
      <path
         id="path14"
         d="m 345.5,426.5 c 16.67,-0.167 33.337,0 50,0.5 1.833,0.5 3,1.667 3.5,3.5 0.499,4.655 0.666,9.321 0.5,14 5.572,-0.51 10.905,0.323 16,2.5 2.991,2.648 4.657,5.981 5,10 -3.599,15.228 -7.432,30.395 -11.5,45.5 -1.868,4.021 -5.035,6.187 -9.5,6.5 -19.667,0.667 -39.333,0.667 -59,0 -4.343,-1.01 -7.51,-3.51 -9.5,-7.5 -3.177,-13.043 -6.511,-26.043 -10,-39 -1.041,-4.94 -0.374,-9.606 2,-14 0.903,-1.201 2.069,-2.035 3.5,-2.5 4.901,-1.325 9.901,-1.825 15,-1.5 -0.166,-4.679 10e-4,-9.345 0.5,-14 0.69,-1.85 1.856,-3.184 3.5,-4 z"
         style="opacity:0.96799999;fill:#003366;fill-opacity:1"
         inkscape:connector-curvature="0" />
    </g>
    <g
       style="fill:#003366;fill-opacity:1"
       id="g20">
      <path
         id="path18"
         d="m 11.5,447.5 c 95.334,-0.167 190.667,0 286,0.5 3.073,0.739 5.24,2.572 6.5,5.5 1,11.333 2,22.667 3,34 2.275,5.719 5.442,10.885 9.5,15.5 -97,0.667 -194,0.667 -291,0 C 15.0978,500.265 8.26442,493.765 5,483.5 c -1.93786,-10.348 -1.93786,-20.681 0,-31 1.80493,-2.326 3.9716,-3.992 6.5,-5 z"
         style="opacity:0.97899996;fill:#003366;fill-opacity:1"
         inkscape:connector-curvature="0" />
    </g>
  </g>
</svg>
