<svg width="150" height="150" viewBox="0 0 150 150" fill="none" xmlns="http://www.w3.org/2000/svg">
<path d="M75 0C33.6451 0 0 33.6451 0 75C0 116.355 33.6451 150 75 150C116.355 150 150 116.355 150 75C150 33.6451 116.355 0 75 0ZM38.2735 111.866C37.4294 112.437 35.3106 112.94 34.071 111.564L31.7839 108.687C30.6779 106.817 32.0174 105.082 32.8847 104.363C37.0079 100.943 40.0061 98.2969 41.877 96.4255C45.5457 92.5673 48.2577 88.7052 50.0483 84.8547C50.4578 83.9744 49.4126 83.4155 48.8697 83.2376C35.3497 78.8065 28.5875 70.9948 28.5875 59.8039C28.5875 53.2104 30.7775 47.8526 35.1549 43.7338C39.5343 39.6126 45.0202 37.5532 51.6113 37.5532C57.483 37.5532 62.6861 40.2309 67.2178 45.5882C71.6484 50.6343 73.862 56.0955 73.862 61.9673C73.8625 79.1758 62.0001 95.8082 38.2735 111.866ZM89.7291 111.866C88.885 112.437 86.7662 112.94 85.5266 111.564L83.2395 108.687C82.1335 106.817 83.473 105.082 84.3403 104.363C88.463 100.943 91.4617 98.2969 93.3326 96.4255C97.0013 92.5673 99.7133 88.7052 101.504 84.8547C101.914 83.9744 100.869 83.4155 100.326 83.2376C86.8058 78.8065 80.0436 70.9948 80.0436 59.8039C80.0436 53.2104 82.2335 47.8526 86.611 43.7338C90.9908 39.6126 96.4763 37.5532 103.067 37.5532C108.939 37.5532 114.142 40.2309 118.674 45.5882C123.104 50.6343 125.318 56.0955 125.318 61.9673C125.318 79.1758 113.456 95.8082 89.7291 111.866Z" fill="#003366"/>
</svg>
