<?xml version="1.0"?>
<svg xmlns="http://www.w3.org/2000/svg" viewBox="0 0 64 64" width="512" height="512"><g id="flat"><path d="M47.769,16.254A15.991,15.991,0,0,0,35.063,3.287,16.252,16.252,0,0,0,18,11l-2,4s5,1,7-2a10.694,10.694,0,0,1,8.992-5,10.867,10.867,0,0,1,10.9,9.427A11.006,11.006,0,0,1,32,30H31a2,2,0,0,0-2,2v2l-2,3,2,3-2,3,2,3v1h6V35A16.337,16.337,0,0,0,47.769,16.254Z" style="fill:#98a1a1"/><path d="M34,61H30a1.85,1.85,0,0,1-2-2l1-8h6l1,8A1.85,1.85,0,0,1,34,61Z" style="fill:#ebb562"/><rect x="27" y="47" width="10" height="4" style="fill:#995f5b"/><rect x="32" y="34" width="3" height="2" style="fill:#e8e8e8"/><rect x="31" y="42" width="4" height="2" style="fill:#e8e8e8"/><rect x="32" y="38" width="3" height="2" style="fill:#e8e8e8"/><rect x="31" y="56" width="2" height="5" style="fill:#995f5b"/></g></svg>
