<svg width="150" height="150" viewBox="0 0 150 150" fill="none" xmlns="http://www.w3.org/2000/svg">
<path d="M74.9968 0C33.581 0 0 33.581 0 74.9968C0 116.413 33.581 150 74.9968 150C116.413 150 150 116.413 150 74.9968C150 33.581 116.413 0 74.9968 0ZM90.6095 116.235C86.7492 117.759 83.6762 118.914 81.3714 119.714C79.073 120.514 76.4 120.914 73.3587 120.914C68.6857 120.914 65.0476 119.771 62.4571 117.492C59.8667 115.213 58.5778 112.324 58.5778 108.813C58.5778 107.448 58.673 106.051 58.8635 104.629C59.0603 103.206 59.3714 101.606 59.7968 99.8095L64.6286 82.7429C65.054 81.1048 65.4222 79.5492 65.7143 78.1016C66.0064 76.6413 66.146 75.3016 66.146 74.0825C66.146 71.9111 65.6952 70.3873 64.8 69.5302C63.8921 68.673 62.1841 68.254 59.6381 68.254C58.3937 68.254 57.1111 68.4381 55.7968 68.8254C54.4952 69.2254 53.3651 69.5873 52.4381 69.9429L53.7143 64.6857C56.8762 63.3968 59.9048 62.2921 62.7937 61.3778C65.6825 60.4508 68.4127 59.9937 70.9841 59.9937C75.6254 59.9937 79.2064 61.1238 81.727 63.3587C84.2349 65.6 85.4984 68.5143 85.4984 72.0952C85.4984 72.8381 85.4095 74.146 85.2381 76.0127C85.0667 77.8857 84.7429 79.5937 84.273 81.1619L79.4667 98.1778C79.073 99.5429 78.7238 101.105 78.4063 102.851C78.0952 104.597 77.9429 105.93 77.9429 106.825C77.9429 109.086 78.4445 110.629 79.4603 111.448C80.4635 112.267 82.2222 112.679 84.7111 112.679C85.8857 112.679 87.2 112.47 88.6857 112.063C90.1587 111.657 91.2254 111.295 91.8984 110.984L90.6095 116.235ZM89.7587 47.1683C87.5175 49.2508 84.8191 50.2921 81.6635 50.2921C78.5143 50.2921 75.7968 49.2508 73.5365 47.1683C71.2889 45.0857 70.1524 42.5524 70.1524 39.5937C70.1524 36.6413 71.2952 34.1016 73.5365 32C75.7968 29.8921 78.5143 28.8444 81.6635 28.8444C84.8191 28.8444 87.5238 29.8921 89.7587 32C92 34.1016 93.1238 36.6413 93.1238 39.5937C93.1238 42.5587 92 45.0857 89.7587 47.1683Z" fill="#003366"/>
</svg>
