<?xml version="1.0"?>
<svg xmlns="http://www.w3.org/2000/svg" viewBox="0 0 64 64" width="512" height="512"><g id="flat"><rect x="22" y="-14" width="4" height="42" transform="translate(31 -17) rotate(90)" style="fill:#995f5b"/><rect x="25" y="19" width="14" height="14" style="fill:#ffd782"/><polygon points="47 9 47 5 56 4 61 7 56 10 47 9" style="fill:#98a1a1"/><rect x="41" y="5" width="8" height="4" transform="translate(52 -38) rotate(90)" style="fill:#d3843d"/><rect x="30" y="5" width="8" height="4" rx="2" ry="2" transform="translate(41 -27) rotate(90)" style="fill:#6f1d48"/><rect x="26" y="5" width="8" height="4" rx="2" ry="2" transform="translate(37 -23) rotate(90)" style="fill:#d3843d"/><polygon points="12 9 16 5 22 5 18 9 12 9" style="fill:#d3843d"/><rect x="25" y="33" width="14" height="16" style="fill:#d3994c"/><polygon points="21 13 21 9 17 9 17 17 21 17 25 17 25 13 21 13" style="fill:#ffd782"/><polygon points="43 13 43 11 47 11 47 17 43 17 39 17 39 13 43 13" style="fill:#ffd782"/><path d="M21,34a2,2,0,0,0,2,2h2V17H21Z" style="fill:#ebb562"/><path d="M39,17V36h2a2,2,0,0,0,2-2V17Z" style="fill:#ebb562"/><rect x="29" y="22" width="2" height="2" style="fill:#2e3131"/><rect x="33" y="22" width="2" height="2" style="fill:#2e3131"/><rect x="28" y="37" width="2" height="2" style="fill:#ebb562"/><rect x="34" y="37" width="2" height="2" style="fill:#ebb562"/><polygon points="33 28 33 26 31 26 31 28 28 28 28 30 36 30 36 28 33 28" style="fill:#2e3131"/><rect x="25" y="49" width="14" height="12" style="fill:#e37f46"/><polygon points="39 54 25 49 39 49 39 54" style="fill:#dd3e46"/><rect x="28" y="56" width="2" height="5" style="fill:#f1c056"/><rect x="33" y="58" width="2" height="3" style="fill:#f1c056"/><path d="M50,19V17c4.809,0,4.995-3.6,5-4.006L57,13C57,15.075,55.537,19,50,19Z" style="fill:#e8e8e8"/><path d="M50,23V21c8.9,0,9-7.673,9-8h2C61,13.1,60.874,23,50,23Z" style="fill:#e8e8e8"/><path d="M14,18c-5.537,0-7-3.925-7-6H8l1-.006C9.005,12.4,9.191,16,14,16Z" style="fill:#e8e8e8"/><path d="M14,22C3.126,22,3,12.1,3,12H4l1,0c0,.327.149,8,9,8Z" style="fill:#e8e8e8"/></g></svg>
