<svg width="150" height="150" viewBox="0 0 150 150" fill="none" xmlns="http://www.w3.org/2000/svg">
<g clip-path="url(#clip0_9_155)">
<path d="M40.7551 101.242C38.6734 99.076 35.0283 98.8068 32.6491 100.613L32.5866 100.573L27.2022 105.957C26.0216 107.134 25.3743 108.705 25.3743 110.374C25.3033 113.737 28.264 116.691 31.623 116.623C33.5785 116.655 35.3199 115.677 36.5954 114.24L40.7551 110.08C41.6267 109.208 42.2115 108.124 42.4543 106.943C42.8901 104.901 42.2457 102.711 40.7551 101.242V101.242Z" fill="#003366" fill-opacity="0.941176"/>
<path d="M25.7785 82.9376C23.3412 80.4999 19.3808 80.5024 16.9406 82.9376C16.3735 83.5076 12.8765 87.0023 12.2292 87.6526C6.60837 93.7527 14.9601 102.108 21.0635 96.4905C21.0635 96.4905 25.1525 92.4011 25.7785 91.7755C28.2173 89.3407 28.2173 85.376 25.7785 82.9376V82.9376Z" fill="#003366" fill-opacity="0.941176"/>
<path d="M53.532 115.494C51.8622 115.494 50.2918 116.145 49.1112 117.326L44.3962 122.041C44.3741 122.063 44.352 122.085 44.33 122.11C41.9673 124.445 42.0026 128.578 44.3962 130.878C46.8346 133.313 50.7993 133.313 53.2341 130.878L57.9528 126.16C61.8609 122.262 59.0517 115.473 53.532 115.494Z" fill="#003366" fill-opacity="0.941176"/>
<path d="M95.4666 46.1332C85.8196 52.2164 72.8845 51.0616 64.488 42.665L53.5574 31.7381L67.1986 18.0969C52.5471 1.65504 26.7837 0.612001 11.1881 16.3135C-4.49211 31.887 -3.48695 57.6199 12.9203 72.2758C24.869 65.5976 39.5624 74.9253 38.5955 88.532C46.5073 89.3871 53.2054 96.5582 53.568 104.472C61.008 104.313 68.3983 109.885 70.2104 117.234C76.4042 115.574 83.3462 117.63 87.5882 122.537L87.7133 122.39C93.863 126.083 100.369 118.499 95.731 112.975L95.7421 112.96C95.6464 112.868 70.9055 88.1274 70.9055 88.1274C72.8496 86.1833 76.7625 82.2704 78.7062 80.3267L103.26 104.88C109.359 110.5 117.716 102.143 112.094 96.0421L87.5441 71.4888C89.4882 69.5446 93.4011 65.6318 95.3448 63.688C100.863 69.2059 114.251 82.5941 119.898 88.2414C122.223 90.6636 126.411 90.6625 128.736 88.2414C131.171 85.803 131.171 81.8383 128.736 79.4035L95.4666 46.1332Z" fill="#003366" fill-opacity="0.941176"/>
<path d="M138.811 16.3131C123.86 1.36632 99.5346 1.36632 84.5841 16.3131C81.6772 19.222 71.9084 28.9929 69.1629 31.7381L72.2891 34.8643C77.7249 40.3001 86.5665 40.3001 91.9987 34.8643L95.9009 30.9621C97.9756 33.0595 136.059 71.0783 137.13 72.224C153.498 57.5625 154.468 31.8664 138.811 16.3131V16.3131Z" fill="#003366" fill-opacity="0.941176"/>
<path d="M79.0269 129.529C76.5881 127.094 72.6263 127.091 70.189 129.529L65.474 134.244C63.0477 136.57 63.0488 140.755 65.474 143.082C67.8032 145.502 71.9842 145.501 74.3119 143.082L79.0269 138.367C81.448 136.044 81.448 131.846 79.0269 129.529V129.529Z" fill="#003366" fill-opacity="0.941176"/>
</g>
<defs>
<clipPath id="clip0_9_155">
<rect width="150" height="150" fill="white"/>
</clipPath>
</defs>
</svg>
