<?xml version="1.0" encoding="UTF-8" standalone="no"?>
<svg
   xmlns:dc="http://purl.org/dc/elements/1.1/"
   xmlns:cc="http://creativecommons.org/ns#"
   xmlns:rdf="http://www.w3.org/1999/02/22-rdf-syntax-ns#"
   xmlns:svg="http://www.w3.org/2000/svg"
   xmlns="http://www.w3.org/2000/svg"
   xmlns:sodipodi="http://sodipodi.sourceforge.net/DTD/sodipodi-0.dtd"
   xmlns:inkscape="http://www.inkscape.org/namespaces/inkscape"
   viewBox="0 0 32 32"
   version="1.1"
   id="svg13"
   sodipodi:docname="teste.svg"
   inkscape:version="0.92.5 (2060ec1f9f, 2020-04-08)">
  <metadata
     id="metadata19">
    <rdf:RDF>
      <cc:Work
         rdf:about="">
        <dc:format>image/svg+xml</dc:format>
        <dc:type
           rdf:resource="http://purl.org/dc/dcmitype/StillImage" />
      </cc:Work>
    </rdf:RDF>
  </metadata>
  <defs
     id="defs17" />
  <sodipodi:namedview
     pagecolor="#ffffff"
     bordercolor="#666666"
     borderopacity="1"
     objecttolerance="10"
     gridtolerance="10"
     guidetolerance="10"
     inkscape:pageopacity="0"
     inkscape:pageshadow="2"
     inkscape:window-width="1920"
     inkscape:window-height="1009"
     id="namedview15"
     showgrid="false"
     inkscape:zoom="7.375"
     inkscape:cx="-7.5932203"
     inkscape:cy="16"
     inkscape:window-x="0"
     inkscape:window-y="0"
     inkscape:window-maximized="1"
     inkscape:current-layer="svg13" />
  <title
     id="title2" />
  <g
     data-name="education, test, exam, school, student, knowledge, study, examination, college, classroom"
     id="education_test_exam_school_student_knowledge_study_examination_college_classroom"
     style="fill:#003366;fill-opacity:1">
    <path
       d="M23,2H9A3,3,0,0,0,6,5V27a3,3,0,0,0,3,3H23a3,3,0,0,0,3-3V5A3,3,0,0,0,23,2Zm1,25a1,1,0,0,1-1,1H9a1,1,0,0,1-1-1V5A1,1,0,0,1,9,4H23a1,1,0,0,1,1,1Z"
       id="path4"
       style="fill:#003366;fill-opacity:1" />
    <path
       d="M12.61,14.92A1,1,0,0,0,13,15a1,1,0,0,0,.92-.61l.6-1.39h3l.6,1.39A1,1,0,0,0,19,15a1,1,0,0,0,.39-.08,1,1,0,0,0,.53-1.31l-3-7A.89.89,0,0,0,16,6a.91.91,0,0,0-.92.61l-3,7A1,1,0,0,0,12.61,14.92ZM15.37,11,16,9.54,16.63,11Z"
       id="path6"
       style="fill:#003366;fill-opacity:1" />
    <path
       d="M10,22h6a1,1,0,0,0,0-2H10a1,1,0,0,0,0,2Z"
       id="path8"
       style="fill:#003366;fill-opacity:1" />
    <path
       d="M21,24H10a1,1,0,0,0,0,2H21a1,1,0,0,0,0-2Z"
       id="path10"
       style="fill:#003366;fill-opacity:1" />
  </g>
</svg>
