<?xml version="1.0"?>
<svg xmlns="http://www.w3.org/2000/svg" viewBox="0 0 64 64" width="512" height="512"><g id="flat"><path d="M43,18,46,7H18l3,11a11.359,11.359,0,0,1-2,10,19.948,19.948,0,0,0-5,13c0,9.941,8.059,16,18,16s18-6.059,18-16a19.948,19.948,0,0,0-5-13A11.359,11.359,0,0,1,43,18Z" style="fill:#ebb562"/><rect x="14" y="3" width="36" height="4" style="fill:#995f5b"/><polygon points="42 61 22 61 25 56 39 56 42 61" style="fill:#995f5b"/><polygon points="44.364 13 46 7 18 7 19.636 13 44.364 13" style="fill:#f1d77e"/><path d="M19,28a22.646,22.646,0,0,0-2.707,4H47.707A22.646,22.646,0,0,0,45,28a9.32,9.32,0,0,1-1.267-2H20.267A9.32,9.32,0,0,1,19,28Z" style="fill:#e4544f"/><polygon points="47 32 42 38 37 32 32 38 27 32 22 38 17 32 47 32" style="fill:#cdeef6"/><polygon points="20 13 25 18 29 13 32 18 35 13 39 18 44 13 20 13" style="fill:#e4544f"/><path d="M38.242,52.97l-.484-1.94a9.8,9.8,0,0,0,5.41-3.585l1.664,1.11A11.793,11.793,0,0,1,38.242,52.97Z" style="fill:#f1d77e"/><rect x="25" y="21" width="2" height="2" style="fill:#f1d77e"/><rect x="29" y="21" width="2" height="2" style="fill:#f1d77e"/><path d="M15,14a4,4,0,0,1-4-4,1,1,0,0,0-2,0,4,4,0,0,1-4,4,1,1,0,0,0,0,2,4,4,0,0,1,4,4,1,1,0,0,0,2,0,4,4,0,0,1,4-4,1,1,0,0,0,0-2Zm-5,2.69A6.044,6.044,0,0,0,8.31,15,6.044,6.044,0,0,0,10,13.31,6.044,6.044,0,0,0,11.69,15,6.044,6.044,0,0,0,10,16.69Z" style="fill:#e97424"/><path d="M58,22a4,4,0,0,1-4-4,1,1,0,0,0-2,0,4,4,0,0,1-4,4,1,1,0,0,0,0,2,4,4,0,0,1,4,4,1,1,0,0,0,2,0,4,4,0,0,1,4-4,1,1,0,0,0,0-2Zm-5,2.69A6.044,6.044,0,0,0,51.31,23,6.044,6.044,0,0,0,53,21.31,6.044,6.044,0,0,0,54.69,23,6.044,6.044,0,0,0,53,24.69Z" style="fill:#e97424"/><path d="M14,41a15.669,15.669,0,0,0,1.578,7H48.422A15.669,15.669,0,0,0,50,41a18.723,18.723,0,0,0-.258-3H14.258A18.723,18.723,0,0,0,14,41Z" style="fill:#e4544f"/><rect x="18" y="42" width="6" height="2" style="fill:#f1d77e"/><rect x="30" y="42" width="4" height="2" style="fill:#f1d77e"/><rect x="26" y="42" width="2" height="2" style="fill:#f1d77e"/><rect x="40" y="42" width="6" height="2" style="fill:#f1d77e"/><rect x="36" y="42" width="2" height="2" style="fill:#f1d77e"/></g></svg>
